<svg width="102" height="38" viewBox="0 0 102 38" fill="none" xmlns="http://www.w3.org/2000/svg">
<path d="M22.1536 22.935C21.6568 22.935 21.2176 22.8486 20.836 22.6758C20.4616 22.503 20.1664 22.2618 19.9504 21.9522C19.7344 21.6426 19.6192 21.297 19.6048 20.9154H20.404C20.44 21.2826 20.602 21.6066 20.89 21.8874C21.178 22.161 21.5992 22.2978 22.1536 22.2978C22.6648 22.2978 23.068 22.1682 23.3632 21.909C23.6656 21.6426 23.8168 21.3078 23.8168 20.9046C23.8168 20.5806 23.734 20.3214 23.5684 20.127C23.4028 19.9254 23.1976 19.7778 22.9528 19.6842C22.708 19.5834 22.3696 19.4754 21.9376 19.3602C21.4336 19.2234 21.034 19.0902 20.7388 18.9606C20.4436 18.831 20.1916 18.6294 19.9828 18.3558C19.774 18.0822 19.6696 17.7114 19.6696 17.2434C19.6696 16.8546 19.7704 16.509 19.972 16.2066C20.1736 15.897 20.458 15.6558 20.8252 15.483C21.1924 15.3102 21.6136 15.2238 22.0888 15.2238C22.7872 15.2238 23.3488 15.3966 23.7736 15.7422C24.2056 16.0806 24.454 16.5198 24.5188 17.0598H23.698C23.6476 16.7502 23.4784 16.4766 23.1904 16.239C22.9024 15.9942 22.5136 15.8718 22.024 15.8718C21.5704 15.8718 21.1924 15.9942 20.89 16.239C20.5876 16.4766 20.4364 16.8042 20.4364 17.2218C20.4364 17.5386 20.5192 17.7942 20.6848 17.9886C20.8504 18.183 21.0556 18.3306 21.3004 18.4314C21.5524 18.5322 21.8908 18.6402 22.3156 18.7554C22.8052 18.8922 23.2012 19.029 23.5036 19.1658C23.806 19.2954 24.0616 19.497 24.2704 19.7706C24.4792 20.0442 24.5836 20.4114 24.5836 20.8722C24.5836 21.225 24.49 21.5598 24.3028 21.8766C24.1156 22.1934 23.8384 22.449 23.4712 22.6434C23.104 22.8378 22.6648 22.935 22.1536 22.935ZM28.8005 15.9258V18.7446H31.6625V19.371H28.8005V22.233H31.9865V22.8594H28.0445V15.2994H31.9865V15.9258H28.8005ZM39.4937 22.8594L37.6253 19.7058H36.2321V22.8594H35.4761V15.3102H37.7441C38.5865 15.3102 39.2237 15.5118 39.6557 15.915C40.0949 16.3182 40.3145 16.8474 40.3145 17.5026C40.3145 18.0498 40.1561 18.5178 39.8393 18.9066C39.5297 19.2882 39.0689 19.5366 38.4569 19.6518L40.4009 22.8594H39.4937ZM36.2321 19.0902H37.7549C38.3453 19.0902 38.7881 18.9462 39.0833 18.6582C39.3857 18.3702 39.5369 17.985 39.5369 17.5026C39.5369 17.0058 39.3929 16.6242 39.1049 16.3578C38.8169 16.0842 38.3633 15.9474 37.7441 15.9474H36.2321V19.0902ZM49.798 15.3102L46.936 22.8594H46.072L43.21 15.3102H44.0308L46.504 22.0386L48.9988 15.3102H49.798ZM53.6899 15.3102V22.8594H52.9339V15.3102H53.6899ZM57.0563 19.0794C57.0563 18.3378 57.2183 17.6754 57.5423 17.0922C57.8663 16.5018 58.3091 16.0446 58.8707 15.7206C59.4323 15.3894 60.0587 15.2238 60.7499 15.2238C61.5923 15.2238 62.3123 15.4254 62.9099 15.8286C63.5147 16.2246 63.9539 16.7862 64.2275 17.5134H63.3419C63.1259 17.0022 62.7947 16.6026 62.3483 16.3146C61.9091 16.0266 61.3763 15.8826 60.7499 15.8826C60.1955 15.8826 59.6951 16.0122 59.2487 16.2714C58.8095 16.5306 58.4639 16.905 58.2119 17.3946C57.9599 17.877 57.8339 18.4386 57.8339 19.0794C57.8339 19.7202 57.9599 20.2818 58.2119 20.7642C58.4639 21.2466 58.8095 21.6174 59.2487 21.8766C59.6951 22.1358 60.1955 22.2654 60.7499 22.2654C61.3763 22.2654 61.9091 22.125 62.3483 21.8442C62.7947 21.5562 63.1259 21.1602 63.3419 20.6562H64.2275C63.9539 21.3762 63.5147 21.9342 62.9099 22.3302C62.3051 22.7262 61.5851 22.9242 60.7499 22.9242C60.0587 22.9242 59.4323 22.7622 58.8707 22.4382C58.3091 22.107 57.8663 21.6498 57.5423 21.0666C57.2183 20.4834 57.0563 19.821 57.0563 19.0794ZM68.4899 15.9258V18.7446H71.3519V19.371H68.4899V22.233H71.6759V22.8594H67.7339V15.2994H71.6759V15.9258H68.4899ZM77.4552 22.935C76.9584 22.935 76.5192 22.8486 76.1376 22.6758C75.7632 22.503 75.468 22.2618 75.252 21.9522C75.036 21.6426 74.9208 21.297 74.9064 20.9154H75.7056C75.7416 21.2826 75.9036 21.6066 76.1916 21.8874C76.4796 22.161 76.9008 22.2978 77.4552 22.2978C77.9664 22.2978 78.3696 22.1682 78.6648 21.909C78.9672 21.6426 79.1184 21.3078 79.1184 20.9046C79.1184 20.5806 79.0356 20.3214 78.87 20.127C78.7044 19.9254 78.4992 19.7778 78.2544 19.6842C78.0096 19.5834 77.6712 19.4754 77.2392 19.3602C76.7352 19.2234 76.3356 19.0902 76.0404 18.9606C75.7452 18.831 75.4932 18.6294 75.2844 18.3558C75.0756 18.0822 74.9712 17.7114 74.9712 17.2434C74.9712 16.8546 75.072 16.509 75.2736 16.2066C75.4752 15.897 75.7596 15.6558 76.1268 15.483C76.494 15.3102 76.9152 15.2238 77.3904 15.2238C78.0888 15.2238 78.6504 15.3966 79.0752 15.7422C79.5072 16.0806 79.7556 16.5198 79.8204 17.0598H78.9996C78.9492 16.7502 78.78 16.4766 78.492 16.239C78.204 15.9942 77.8152 15.8718 77.3256 15.8718C76.872 15.8718 76.494 15.9942 76.1916 16.239C75.8892 16.4766 75.738 16.8042 75.738 17.2218C75.738 17.5386 75.8208 17.7942 75.9864 17.9886C76.152 18.183 76.3572 18.3306 76.602 18.4314C76.854 18.5322 77.1924 18.6402 77.6172 18.7554C78.1068 18.8922 78.5028 19.029 78.8052 19.1658C79.1076 19.2954 79.3632 19.497 79.572 19.7706C79.7808 20.0442 79.8852 20.4114 79.8852 20.8722C79.8852 21.225 79.7916 21.5598 79.6044 21.8766C79.4172 22.1934 79.14 22.449 78.7728 22.6434C78.4056 22.8378 77.9664 22.935 77.4552 22.935Z" fill="#9C9C9C"/>
<rect x="0.5" y="1.35938" width="100.469" height="36" rx="11.5" stroke="#81818B" stroke-opacity="0.2"/>
</svg>
