<svg width="223" height="65" viewBox="0 0 223 65" fill="none" xmlns="http://www.w3.org/2000/svg">
<path fill-rule="evenodd" clip-rule="evenodd" d="M35.4154 30.9705C38.1557 27.4682 42.5439 25.1993 47.4899 25.1993C52.4649 25.1993 56.8754 27.495 59.6125 31.0324C59.4959 31.1462 59.3899 31.2642 59.2938 31.382C58.7924 31.9988 58.4152 32.7934 58.113 33.6003C57.5044 35.2231 57.0402 37.3429 56.6105 39.3278L56.5722 39.5063C56.1434 41.4876 55.7448 43.3303 55.2629 44.6982C55.0464 45.3127 54.8411 45.7472 54.659 46.0254C54.469 45.7449 54.2534 45.3052 54.0253 44.6818C53.5098 43.2747 53.0763 41.3607 52.6167 39.317L52.6018 39.2501V39.25C52.1602 37.2871 51.6917 35.2043 51.1076 33.61C50.8142 32.8091 50.4542 32.0225 49.9832 31.4113C49.5211 30.8116 48.7517 30.1347 47.6266 30.1347C46.5085 30.1347 45.7356 30.8042 45.2667 31.3972C44.7867 32.0045 44.4125 32.7878 44.1042 33.5891C43.4834 35.2026 42.9758 37.3133 42.5034 39.301L42.4546 39.5063C41.9869 41.4753 41.5496 43.3162 41.0532 44.6867C40.8637 45.21 40.6849 45.6083 40.5231 45.8927C40.3649 45.6096 40.1905 45.214 40.0062 44.6951C39.53 43.3538 39.1128 41.5644 38.6648 39.6426L38.5864 39.3063C38.1222 37.3174 37.6185 35.2029 36.9889 33.5843C36.676 32.7801 36.2933 31.9928 35.7982 31.3828C35.686 31.2447 35.5586 31.1045 35.4154 30.9705ZM33.7569 33.6596C33.8874 33.9045 34.0254 34.208 34.1682 34.575C34.7132 35.976 35.175 37.8877 35.6505 39.9249L35.743 40.3219C36.1759 42.1807 36.6263 44.1144 37.1568 45.6083C37.4389 46.4028 37.7796 47.181 38.2178 47.7858C38.6322 48.3578 39.3756 49.0967 40.5186 49.0967C41.6584 49.0967 42.4036 48.3614 42.8208 47.792C43.2627 47.1886 43.609 46.4112 43.8968 45.6162C44.4486 44.0927 44.9184 42.1138 45.368 40.2199V40.2198L45.4368 39.9303C45.9212 37.8918 46.3876 35.9763 46.9286 34.5702C47.1793 33.9187 47.4139 33.4649 47.6182 33.1833C47.8118 33.4625 48.033 33.9091 48.2676 34.5493C48.7832 35.9566 49.2163 37.8705 49.676 39.9142L49.691 39.9811C50.1325 41.9441 50.601 44.027 51.1851 45.6211C51.4785 46.4223 51.8386 47.2089 52.3095 47.8199C52.7718 48.4198 53.541 49.0967 54.666 49.0967C55.797 49.0967 56.5634 48.4136 57.0202 47.8084C57.484 47.1943 57.8327 46.405 58.1144 45.6052C58.6559 44.0687 59.0864 42.0752 59.497 40.1788V40.1787L59.5558 39.9034C59.9978 37.8622 60.422 35.9558 60.946 34.559C61.0594 34.2551 61.1712 33.996 61.2778 33.7784C62.0805 35.5265 62.5257 37.4567 62.5257 39.4857C62.5257 47.3757 55.7942 53.7721 47.4899 53.7721C39.1857 53.7721 32.4539 47.3757 32.4539 39.4857C32.4539 37.4106 32.9195 35.4388 33.7569 33.6596ZM47.4899 22.342C37.5249 22.342 29.4467 30.0175 29.4467 39.4857C29.4467 48.9538 37.5249 56.6292 47.4899 56.6292C57.4551 56.6292 65.5329 48.9538 65.5329 39.4857C65.5329 30.0175 57.4551 22.342 47.4899 22.342ZM47.8336 32.9442C47.8336 32.9445 47.8301 32.9472 47.8231 32.9511C47.8301 32.9458 47.8336 32.9438 47.8336 32.9442ZM47.418 32.9461C47.411 32.9421 47.4075 32.9393 47.4075 32.9389C47.4075 32.9385 47.4111 32.9406 47.418 32.9461ZM54.4373 46.2966C54.4373 46.2966 54.4406 46.2935 54.4471 46.2896C54.4406 46.2949 54.4373 46.2971 54.4373 46.2966ZM54.8746 46.2851C54.8815 46.2891 54.8853 46.2918 54.8853 46.2922C54.8853 46.2926 54.8815 46.2904 54.8746 46.2851ZM40.2105 46.3223C40.2104 46.3218 40.2148 46.3178 40.2234 46.3121C40.2148 46.3196 40.2105 46.3227 40.2105 46.3223ZM40.8195 46.3148C40.8281 46.3205 40.8324 46.3245 40.8324 46.3249C40.8323 46.3254 40.828 46.3227 40.8195 46.3148Z" fill="#81818B"/>
<path d="M75.4958 49.6351L71.1205 35.4144H74.953L77.5481 45.6498L80.5652 35.4144H84.8503L87.868 45.6498L90.493 35.4144H94.3255L89.9197 49.6351H85.9066L82.7078 38.9982L79.5095 49.6351H75.4958Z" fill="#81818B"/>
<path d="M99.9488 49.9793C98.6615 49.9793 97.6052 49.7877 96.7804 49.4055C95.9562 49.0042 95.3424 48.4786 94.9398 47.8287C94.5376 47.1788 94.3365 46.4621 94.3365 45.6785C94.3365 44.3597 94.8794 43.2893 95.9656 42.4674C97.0519 41.6455 98.682 41.2346 100.854 41.2346H104.656V40.8905C104.656 39.9157 104.365 39.199 103.781 38.7402C103.198 38.2815 102.474 38.0522 101.609 38.0522C100.824 38.0522 100.14 38.2337 99.5566 38.5969C98.9734 38.9409 98.6111 39.457 98.4704 40.1451H94.6983C94.7991 39.113 95.1613 38.2146 95.7845 37.45C96.4287 36.6855 97.2535 36.1025 98.2588 35.7012C99.2653 35.2807 100.391 35.0704 101.639 35.0704C103.771 35.0704 105.451 35.5769 106.678 36.5899C107.905 37.603 108.519 39.0366 108.519 40.8905V49.6351H105.229L104.868 47.3416C104.425 48.1061 103.801 48.7366 102.997 49.2338C102.212 49.7306 101.196 49.9793 99.9488 49.9793ZM100.824 47.112C101.931 47.112 102.785 46.7678 103.389 46.0798C104.012 45.3919 104.405 44.5411 104.566 43.5282H101.277C100.251 43.5282 99.5167 43.7098 99.0736 44.0729C98.6316 44.4168 98.41 44.8472 98.41 45.3631C98.41 45.9175 98.6316 46.3475 99.0736 46.6532C99.5167 46.9589 100.099 47.112 100.824 47.112Z" fill="#81818B"/>
<path d="M114.599 49.6351L109.107 35.4144H113.15L116.952 46.1661L120.755 35.4144H124.798L119.276 49.6351H114.599Z" fill="#81818B"/>
<path d="M132.562 49.9793C131.054 49.9793 129.716 49.6732 128.549 49.0617C127.383 48.4498 126.468 47.5898 125.803 46.4811C125.139 45.3728 124.808 44.092 124.808 42.6394C124.808 41.1677 125.13 39.8584 125.773 38.7116C126.437 37.5648 127.342 36.676 128.489 36.0452C129.655 35.3954 131.023 35.0704 132.593 35.0704C134.061 35.0704 135.359 35.3762 136.486 35.9879C137.612 36.5995 138.487 37.4405 139.111 38.5109C139.754 39.5621 140.077 40.7376 140.077 42.0373C140.077 42.2476 140.066 42.4674 140.046 42.6967C140.046 42.9262 140.036 43.165 140.016 43.4135H128.64C128.72 44.5221 129.123 45.3919 129.847 46.0228C130.591 46.6532 131.487 46.9687 132.533 46.9687C133.317 46.9687 133.971 46.8063 134.494 46.4811C135.037 46.1373 135.439 45.6976 135.701 45.1622H139.623C139.342 46.0608 138.869 46.8828 138.205 47.6283C137.561 48.3543 136.757 48.9277 135.791 49.3484C134.846 49.7687 133.769 49.9793 132.562 49.9793ZM132.593 38.0522C131.648 38.0522 130.812 38.3102 130.088 38.8262C129.364 39.3232 128.901 40.0878 128.7 41.1199H136.153C136.093 40.1833 135.731 39.4379 135.067 38.8836C134.403 38.3293 133.579 38.0522 132.593 38.0522Z" fill="#81818B"/>
<path d="M142.118 49.635V28.9922H145.98V49.635H142.118Z" fill="#81818B"/>
<path d="M155.991 49.9793C154.483 49.9793 153.145 49.6732 151.978 49.0617C150.812 48.4498 149.897 47.5898 149.233 46.4811C148.568 45.3728 148.237 44.092 148.237 42.6394C148.237 41.1677 148.559 39.8584 149.202 38.7116C149.866 37.5648 150.771 36.676 151.918 36.0452C153.085 35.3954 154.453 35.0704 156.022 35.0704C157.49 35.0704 158.788 35.3762 159.915 35.9879C161.041 36.5995 161.917 37.4405 162.54 38.5109C163.183 39.5621 163.506 40.7376 163.506 42.0373C163.506 42.2476 163.495 42.4674 163.475 42.6967C163.475 42.9262 163.465 43.165 163.445 43.4135H152.069C152.149 44.5221 152.552 45.3919 153.276 46.0228C154.02 46.6532 154.916 46.9687 155.962 46.9687C156.746 46.9687 157.4 46.8063 157.923 46.4811C158.466 46.1373 158.868 45.6976 159.13 45.1622H163.053C162.771 46.0608 162.298 46.8828 161.635 47.6283C160.99 48.3543 160.186 48.9277 159.22 49.3484C158.275 49.7687 157.199 49.9793 155.991 49.9793ZM156.022 38.0522C155.077 38.0522 154.242 38.3102 153.517 38.8262C152.793 39.3232 152.331 40.0878 152.129 41.1199H159.582C159.522 40.1833 159.16 39.4379 158.496 38.8836C157.832 38.3293 157.008 38.0522 156.022 38.0522Z" fill="#81818B"/>
<path d="M171.733 49.9793C170.405 49.9793 169.238 49.7784 168.233 49.3772C167.226 48.9564 166.422 48.3831 165.818 47.6566C165.215 46.9306 164.853 46.0896 164.732 45.134H168.625C168.745 45.6878 169.068 46.1661 169.591 46.5674C170.133 46.9496 170.827 47.1408 171.672 47.1408C172.517 47.1408 173.131 46.9784 173.513 46.6532C173.915 46.3285 174.117 45.9555 174.117 45.5352C174.117 44.9234 173.835 44.5124 173.272 44.3022C172.709 44.0729 171.924 43.8532 170.918 43.6429C170.275 43.5091 169.621 43.3466 168.957 43.1555C168.293 42.9644 167.68 42.7254 167.116 42.4388C166.573 42.1329 166.13 41.7506 165.788 41.2919C165.446 40.814 165.276 40.2311 165.276 39.543C165.276 38.2815 165.798 37.2207 166.845 36.3606C167.911 35.5005 169.399 35.0704 171.31 35.0704C173.081 35.0704 174.489 35.4622 175.535 36.2459C176.601 37.0296 177.235 38.1095 177.436 39.4857H173.785C173.563 38.4344 172.728 37.9088 171.281 37.9088C170.556 37.9088 169.993 38.0426 169.591 38.3102C169.208 38.5778 169.017 38.9122 169.017 39.3136C169.017 39.7342 169.309 40.0686 169.892 40.3171C170.476 40.5656 171.25 40.7949 172.216 41.0052C173.261 41.2346 174.217 41.4926 175.082 41.7793C175.967 42.0469 176.671 42.4579 177.195 43.0122C177.718 43.5473 177.979 44.3212 177.979 45.3343C177.999 46.2139 177.757 47.0067 177.255 47.7141C176.752 48.4211 176.028 48.9754 175.082 49.3772C174.137 49.7784 173.02 49.9793 171.733 49.9793Z" fill="#81818B"/>
<path d="M186.379 49.9793C185.052 49.9793 183.885 49.7784 182.879 49.3772C181.873 48.9564 181.069 48.3831 180.465 47.6566C179.862 46.9306 179.499 46.0896 179.379 45.134H183.272C183.392 45.6878 183.714 46.1661 184.237 46.5674C184.78 46.9496 185.474 47.1408 186.319 47.1408C187.164 47.1408 187.778 46.9784 188.16 46.6532C188.562 46.3285 188.764 45.9555 188.764 45.5352C188.764 44.9234 188.482 44.5124 187.918 44.3022C187.355 44.0729 186.571 43.8532 185.565 43.6429C184.921 43.5091 184.267 43.3466 183.603 43.1555C182.94 42.9644 182.326 42.7254 181.763 42.4388C181.22 42.1329 180.777 41.7506 180.435 41.2919C180.093 40.814 179.922 40.2311 179.922 39.543C179.922 38.2815 180.445 37.2207 181.491 36.3606C182.558 35.5005 184.046 35.0704 185.957 35.0704C187.727 35.0704 189.135 35.4622 190.182 36.2459C191.247 37.0296 191.881 38.1095 192.083 39.4857H188.431C188.21 38.4344 187.375 37.9088 185.927 37.9088C185.202 37.9088 184.639 38.0426 184.237 38.3102C183.855 38.5778 183.664 38.9122 183.664 39.3136C183.664 39.7342 183.955 40.0686 184.539 40.3171C185.122 40.5656 185.896 40.7949 186.862 41.0052C187.908 41.2346 188.864 41.4926 189.729 41.7793C190.614 42.0469 191.318 42.4579 191.841 43.0122C192.364 43.5473 192.626 44.3212 192.626 45.3343C192.646 46.2139 192.404 47.0067 191.901 47.7141C191.398 48.4211 190.675 48.9754 189.729 49.3772C188.783 49.7784 187.667 49.9793 186.379 49.9793Z" fill="#81818B"/>
</svg>
