<svg width="85" height="84" viewBox="0 0 85 84" fill="none" xmlns="http://www.w3.org/2000/svg">
<g clip-path="url(#clip0_1_228)" filter="url(#filter0_d_1_228)">
<g clip-path="url(#clip1_1_228)">
<path opacity="0.06" d="M59.4036 0.265625H25.6277C14.08 0.265625 4.71875 9.62687 4.71875 21.1745V54.9505C4.71875 66.4981 14.08 75.8594 25.6277 75.8594H59.4036C70.9513 75.8594 80.3125 66.4981 80.3125 54.9505V21.1745C80.3125 9.62687 70.9513 0.265625 59.4036 0.265625Z" fill="#0089FF"/>
<path d="M42.5157 63.8029C56.7318 63.8029 68.2561 52.2786 68.2561 38.0625C68.2561 23.8465 56.7318 12.3221 42.5157 12.3221C28.2997 12.3221 16.7753 23.8465 16.7753 38.0625C16.7753 52.2786 28.2997 63.8029 42.5157 63.8029Z" fill="#1B76FF"/>
<path fill-rule="evenodd" clip-rule="evenodd" d="M29.1058 32.9688H33.7516V51.1299H29.1058C28.4063 51.1299 27.8392 50.5898 27.8392 49.9236V34.175C27.8392 33.5088 28.4063 32.9688 29.1058 32.9688Z" stroke="white" stroke-width="1.60838" stroke-linecap="round" stroke-linejoin="round"/>
<path fill-rule="evenodd" clip-rule="evenodd" d="M55.7796 47.7297C55.4855 49.9931 53.9732 51.1299 51.2848 51.1299H37.2172C35.3058 51.1299 33.7516 49.667 33.7516 47.8681V32.9905C38.2128 32.5556 40.4434 30.9982 40.4434 26.8104V24.8035C40.4434 22.6883 42.2439 20.9735 44.4649 20.9735C45.3113 20.9735 46.1361 21.2278 46.8219 21.7003C47.7671 22.3526 48.3693 23.5882 48.3693 25.3673V31.1765C48.3693 31.6707 49.2058 32.0759 50.0424 32.0759H54.5298C56.4202 32.0759 57.9535 33.4992 57.9955 35.2685C58.0235 36.448 57.2849 40.0991 55.7796 47.7297Z" stroke="white" stroke-width="1.60838" stroke-linecap="round" stroke-linejoin="round"/>
</g>
</g>
<defs>
<filter id="filter0_d_1_228" x="0.71875" y="0.265625" width="83.5938" height="83.5938" filterUnits="userSpaceOnUse" color-interpolation-filters="sRGB">
<feFlood flood-opacity="0" result="BackgroundImageFix"/>
<feColorMatrix in="SourceAlpha" type="matrix" values="0 0 0 0 0 0 0 0 0 0 0 0 0 0 0 0 0 0 127 0" result="hardAlpha"/>
<feOffset dy="4"/>
<feGaussianBlur stdDeviation="2"/>
<feComposite in2="hardAlpha" operator="out"/>
<feColorMatrix type="matrix" values="0 0 0 0 0 0 0 0 0 0 0 0 0 0 0 0 0 0 0.25 0"/>
<feBlend mode="normal" in2="BackgroundImageFix" result="effect1_dropShadow_1_228"/>
<feBlend mode="normal" in="SourceGraphic" in2="effect1_dropShadow_1_228" result="shape"/>
</filter>
<clipPath id="clip0_1_228">
<rect width="75.5938" height="75.5938" fill="white" transform="translate(4.71875 0.265625)"/>
</clipPath>
<clipPath id="clip1_1_228">
<rect width="75.5938" height="75.5938" fill="white" transform="translate(4.71875 0.265625)"/>
</clipPath>
</defs>
</svg>
